<svg width="50" height="45" viewBox="0 0 50 45" fill="none" xmlns="http://www.w3.org/2000/svg">
<path d="M25.1666 5.95704C26.53 4.59589 26.5319 2.38722 25.1708 1.02379C23.8096 -0.339635 21.601 -0.341494 20.2375 1.01961L25.1666 5.95704ZM1.02381 20.2007C-0.33962 21.5621 -0.34148 23.7704 1.01962 25.1341C2.38077 26.4974 4.58944 26.4992 5.95287 25.1383L1.02381 20.2007ZM5.87519 20.1258C4.47023 18.8072 2.26268 18.8779 0.944459 20.2825C-0.373758 21.6877 -0.30348 23.8951 1.10148 25.2132L5.87519 20.1258ZM20.3152 43.2409C21.7202 44.5595 23.9277 44.4888 25.246 43.0842C26.5642 41.6791 26.4939 39.4716 25.0889 38.1535L20.3152 43.2409ZM3.48834 19.1812C1.5618 19.1812 3.9947e-06 20.743 3.9947e-06 22.6695C3.9947e-06 24.596 1.5618 26.1578 3.48834 26.1578V19.1812ZM20.2375 1.01961L1.02381 20.2007L5.95287 25.1383L25.1666 5.95704L20.2375 1.01961ZM1.10148 25.2132L20.3152 43.2409L25.0889 38.1535L5.87519 20.1258L1.10148 25.2132Z" fill="#1E1E1E" fill-opacity="0.9"/>
<path d="M50 19.1812H3.48834V26.1578H50V19.1812Z" fill="#1E1E1E" fill-opacity="0.9"/>
</svg>
