<svg width="112" height="82" viewBox="0 0 112 82" fill="none" xmlns="http://www.w3.org/2000/svg">
<path d="M7.56757 0C39.533 0 71.4984 0 104.432 0C101.33 6.22577 97.6225 10.3852 92.821 15.2504C91.5495 16.5466 91.5495 16.5466 90.2524 17.869C88.4601 19.6892 86.6636 21.5052 84.8632 23.3172C82.12 26.0875 79.4063 28.8849 76.6926 31.6842C74.9443 33.4526 73.1944 35.2194 71.4426 36.9842C70.6382 37.8209 69.8338 38.6577 69.005 39.5197C65.2449 43.2476 62.3306 45.4657 57.2726 47.1097C52.2183 47.0678 50.9897 46.428 47.4392 42.9278C46.4149 41.9425 45.3906 40.9571 44.3353 39.9419C43.1901 38.7878 42.0448 37.6336 40.8649 36.4444C38.8426 34.4812 38.8426 34.4812 36.7796 32.4784C33.0613 28.864 29.3857 25.2093 25.7253 21.5362C23.4292 19.2358 21.1211 16.948 18.8125 14.6602C17.3495 13.1968 15.8872 11.7327 14.4257 10.2678C13.1078 8.95177 11.7899 7.63574 10.432 6.27983C7.56757 3.03704 7.56757 3.03704 7.56757 0Z" fill="white"/>
<path d="M42.6245 47.3132C45.4054 48.5926 45.4054 48.5926 48.2432 50.9653C52.6764 53.9741 55.2827 53.9018 60.5405 53.1481C63.0807 51.1457 65.605 49.1229 68.1081 47.0741C74.182 47.4158 77.2464 51.1202 81.375 55.2776C82.7212 56.6293 84.0674 57.9809 85.4544 59.3735C86.8474 60.7956 88.2404 62.2177 89.6757 63.6829C91.1056 65.1143 92.5363 66.5448 93.9679 67.9745C104.432 78.5578 104.432 78.5578 104.432 82C72.467 82 40.5016 82 7.56757 82C11.8083 73.4905 18.1436 67.7319 24.7838 61.0255C26.091 59.664 27.3981 58.3026 28.7449 56.9C30.0092 55.6207 31.2734 54.3415 32.576 53.0236C33.7298 51.8456 34.8836 50.6675 36.0723 49.4538C39.3514 47.0741 39.3514 47.0741 42.6245 47.3132Z" fill="white"/>
<path d="M0 7.59259C6.78618 9.29475 8.46975 10.9974 13.2669 15.9029C15.2862 17.9509 15.2862 17.9509 17.3463 20.0403C18.7393 21.4761 20.1323 22.9119 21.5676 24.3912C22.9973 25.8485 24.428 27.3047 25.8598 28.7599C29.3584 32.3238 32.8459 35.8978 36.3243 39.4815C32.6712 48.0422 25.4847 53.8924 19.0135 60.3611C17.6937 61.7098 16.3738 63.0585 15.0139 64.4481C13.7448 65.7224 12.4757 66.9967 11.1681 68.3096C9.42551 70.0647 9.42551 70.0647 7.64775 71.8553C4.54054 74.4074 4.54054 74.4074 0 74.4074C0 52.3585 0 30.3096 0 7.59259Z" fill="white"/>
<path d="M112 7.59259C112 29.6415 112 51.6904 112 74.4074C105.214 72.7052 103.53 71.0026 98.7331 66.0971C97.3869 64.7317 96.0407 63.3664 94.6537 61.9597C92.5642 59.806 92.5642 59.806 90.4324 57.6088C89.0027 56.1515 87.572 54.6953 86.1402 53.2401C82.6416 49.6762 79.1541 46.1022 75.6757 42.5185C77.9155 37.3027 80.8515 33.916 84.8514 29.9255C86.0571 28.7187 87.2628 27.5119 88.5051 26.2686C89.7654 25.0227 91.0258 23.7767 92.3243 22.4931C93.5847 21.2295 94.845 19.966 96.1436 18.6641C107.26 7.59259 107.26 7.59259 112 7.59259Z" fill="white"/>
</svg>
