<svg width="106" height="106" viewBox="0 0 106 106" fill="none" xmlns="http://www.w3.org/2000/svg">
<path d="M27.556 0.764031C30.1918 3.00204 31.2949 5.84066 32.6192 8.79821C32.7801 9.15569 32.9412 9.51313 33.1024 9.87053C33.4315 10.6002 33.7601 11.3301 34.0884 12.06C34.5304 13.0418 34.9761 14.0222 35.4235 15.0019C35.4913 15.1505 35.5592 15.299 35.629 15.4521C35.7296 15.6724 35.7296 15.6724 35.8322 15.8971C37.029 18.5181 38.2113 21.1439 39.3744 23.777C39.435 23.9139 39.4955 24.0508 39.5578 24.1919C40.5422 26.421 41.4489 28.5429 40.385 30.9184C38.8897 33.5123 35.7714 35.3078 33.1909 36.9809C32.0523 37.7252 32.0523 37.7252 31.3433 38.7917C31.2116 40.008 31.4926 40.9865 31.9342 42.1323C32.0003 42.3049 32.0663 42.4775 32.1343 42.6554C34.6435 48.9627 39.0075 54.6176 43.5915 59.8649C43.7258 60.0193 43.8601 60.1736 43.9986 60.3326C44.4295 60.8202 44.8683 61.3011 45.3105 61.7807C45.4853 61.9723 45.6601 62.1639 45.8401 62.3614C48.5061 65.2371 51.4687 67.9664 54.8508 70.1733C55.2025 70.4065 55.545 70.6478 55.8866 70.8925C57.4584 72.0131 59.0947 72.9751 60.847 73.8578C61.1749 74.023 61.5002 74.1921 61.8252 74.3618C62.9761 74.9281 63.9797 75.2752 65.2943 74.9994C66.8328 74.4252 68.0045 73.4363 69.2058 72.4303C70.1549 71.6468 71.1581 70.9271 72.1705 70.21C72.3281 70.0969 72.4857 69.9838 72.6481 69.8672C74.8089 68.3602 77.0109 68.1045 79.6913 68.2942C81.4927 68.6087 83.0452 69.9546 84.4775 70.92C85.1087 71.3418 85.7573 71.7407 86.4054 72.1414C86.8709 72.4305 87.3345 72.7214 87.7971 73.014C89.2525 73.9341 90.7113 74.8479 92.1881 75.7405C94.082 76.8855 95.9273 78.0735 97.7469 79.3104C98.1846 79.6064 98.6247 79.8992 99.0657 80.1913C105.217 84.2665 105.217 84.2665 105.907 86.1107C106.081 87.5749 106.117 88.9491 105.047 90.1338C103.66 91.4251 102.058 92.5073 100.476 93.5993C99.6374 94.1794 98.817 94.7782 97.9964 95.3781C96.6746 96.3423 95.3272 97.2713 93.9655 98.1899C92.869 98.9336 91.8025 99.7046 90.7442 100.491C83.0429 106.197 83.0429 106.197 77.3637 105.9C67.0095 105.033 57.4801 100.217 49.1783 94.9232C48.9526 94.7799 48.7268 94.6367 48.4942 94.4891C47.9307 94.1271 47.3718 93.7603 46.8147 93.3906C46.6061 93.2535 46.3975 93.1164 46.1826 92.9752C43.993 91.5267 41.9113 90.0005 39.915 88.3467C39.3698 87.8974 38.8169 87.4582 38.2597 87.0207C37.2789 86.2349 36.3363 85.4169 35.3992 84.5901C35.2538 84.463 35.1084 84.3358 34.9586 84.2049C34.8243 84.0853 34.6899 83.9657 34.5514 83.8425C34.43 83.7351 34.3087 83.6277 34.1836 83.517C33.9219 83.2371 33.9219 83.2371 33.9219 82.8539C33.7091 82.7907 33.4964 82.7275 33.2772 82.6624C32.9834 82.4027 32.9834 82.4027 32.6594 82.0517C31.933 81.2861 31.1736 80.5548 30.4032 79.8246C29.4048 78.8732 28.4547 77.9012 27.5409 76.8837C26.965 76.2519 26.3682 75.6382 25.7699 75.0233C24.7691 73.9898 23.8193 72.9323 22.895 71.8436C22.4736 71.3472 22.0456 70.8559 21.6141 70.3664C16.7963 64.9004 12.1425 59.0927 8.78365 52.797C8.55241 52.3682 8.31371 51.9431 8.07416 51.5179C4.14147 44.4584 1.47772 36.8467 0.400603 29.0213C0.380192 28.8904 0.359781 28.7595 0.338751 28.6245C-0.295744 24.2603 -0.321685 19.3246 2.81076 15.6911C4.12312 14.2661 5.64821 13.1025 7.27676 11.9712C7.66268 11.6928 8.04767 11.4134 8.43174 11.133C8.62702 10.9908 8.8223 10.8485 9.0235 10.702C9.68688 10.2127 10.342 9.7155 10.9969 9.21728C11.9549 8.48912 12.9301 7.78605 13.9246 7.09798C14.9691 6.3749 15.986 5.6297 16.9866 4.85895C24.0896 -0.609508 24.0896 -0.609508 27.556 0.764031Z" fill="white"/>
</svg>
